<svg version="1.2" xmlns="http://www.w3.org/2000/svg" viewBox="0 0 24 24" width="24" height="24">
	<title>dots-svg</title>
	<style>
		.s0 { fill: none;stroke: #666869;stroke-linecap: round;stroke-linejoin: round } 
	</style>
	<path id="Layer" class="s0" d="m12 13c-0.6 0-1-0.4-1-1 0-0.6 0.4-1 1-1 0.6 0 1 0.4 1 1 0 0.6-0.4 1-1 1z"/>
	<path id="Layer" class="s0" d="m19 13c-0.6 0-1-0.4-1-1 0-0.6 0.4-1 1-1 0.6 0 1 0.4 1 1 0 0.6-0.4 1-1 1z"/>
	<path id="Layer" class="s0" d="m5 13c-0.6 0-1-0.4-1-1 0-0.6 0.4-1 1-1 0.6 0 1 0.4 1 1 0 0.6-0.4 1-1 1z"/>
</svg>